<?xml version="1.0" encoding="utf-8"?>
<svg xmlns="http://www.w3.org/2000/svg" width="358.4703320513664" height="200.0" viewBox="200.0 200.0 358.4703320513664 200.0">
  <g>
    <polygon points="390.0,300.0 375.0643138852305,311.88901934305756 385.5950864665638,327.81152949374524 367.71649583831595,334.50327798020555 372.8115294937453,352.90067270632255 353.7401153701776,353.7401153701776 352.90067270632255,372.8115294937453 334.50327798020555,367.71649583831595 327.8115294937453,385.5950864665638 311.88901934305756,375.0643138852305 300.0,390.0 288.11098065694244,375.0643138852305 272.18847050625476,385.5950864665638 265.49672201979445,367.71649583831595 247.09932729367742,372.8115294937453 246.2598846298224,353.7401153701776 227.18847050625476,352.9006727063226 232.28350416168405,334.50327798020555 214.40491353343617,327.8115294937453 224.93568611476954,311.88901934305756 210.0,300.0 224.9356861147695,288.11098065694244 214.40491353343617,272.1884705062547 232.28350416168402,265.4967220197945 227.1884705062547,247.09932729367742 246.25988462982238,246.2598846298224 247.0993272936774,227.18847050625476 265.4967220197945,232.28350416168402 272.1884705062547,214.40491353343617 288.11098065694244,224.93568611476954 300.0,210.0 311.88901934305756,224.9356861147695 327.81152949374524,214.40491353343617 334.50327798020555,232.28350416168405 352.90067270632255,227.1884705062547 353.7401153701776,246.25988462982238 372.81152949374524,247.0993272936774 367.71649583831595,265.49672201979445 385.5950864665638,272.1884705062547 375.0643138852305,288.11098065694244" stroke="#333" stroke-width="2" fill="#bbb" opacity="1.0"/>
    <circle cx="300" cy="300" r="12.0" stroke="#000" fill="#666" stroke-width="1.0" opacity="1.0"/>
  </g>
  <g>
    <polygon points="548.4703320513664,314.55381835724313 531.1585456279856,322.7772520122448 536.6311896062464,341.1449676604731 517.4713139560961,341.61611022673407 515.0,360.6217782649107 497.30495168499704,353.2591649125286 487.3169924287358,369.6165326757791 474.1464060570114,355.6932261406233 458.3688103937537,366.57395614066075 452.0,348.4974226119286 433.16085755487995,352.0201377834176 434.69504831500296,332.9159741283785 416.0518179650179,328.47156501530606 425.2237343589069,311.64305468579454 410.0,300.0 425.2237343589069,288.35694531420546 416.05181796501796,271.52843498469394 434.69504831500296,267.0840258716215 433.1608575548799,247.9798622165824 452.0,251.50257738807142 458.3688103937536,233.42604385933925 474.1464060570114,244.30677385937668 487.3169924287358,230.38346732422087 497.30495168499704,246.7408350874714 515.0,239.37822173508928 517.4713139560961,258.38388977326593 536.6311896062463,258.8550323395269 531.1585456279856,277.22274798775516 548.4703320513664,285.44618164275687 536.0,299.99999999999994" stroke="#333" stroke-width="2" fill="#bbb" opacity="1.0"/>
    <circle cx="480.0" cy="300.0" r="9.0" stroke="#000" fill="#666" stroke-width="1.0" opacity="1.0"/>
  </g>
</svg>
